<svg width="109" height="34" xmlns="http://www.w3.org/2000/svg"><defs><linearGradient x1="50%" y1="0%" x2="50%" y2="100%" id="a"><stop stop-color="#B4EC51" offset="0%"/><stop stop-color="#429321" offset="100%"/></linearGradient></defs><g fill="none" fill-rule="evenodd"><path d="M41.9 20.912c2.4 0 4.608.934 4.723 3.858l.004.241V32h-2.845v-1.12c-.739.874-2.016 1.389-3.427 1.389-1.725 0-3.763-1.165-3.763-3.584 0-2.531 2.038-3.495 3.763-3.495 1.344 0 2.55.414 3.287 1.167l.14.155v-1.456c0-1.098-.94-1.814-2.374-1.814-1.082 0-2.086.367-2.96 1.1l-.198.176-1.076-1.904c1.322-1.164 3.024-1.702 4.727-1.702zm60.782 0c1.722 0 3.109.551 4.162 1.322l.206.156-1.143 1.95c-.65-.695-1.881-1.255-3.203-1.255-1.03 0-1.702.47-1.702 1.075 0 1.613 6.406.269 6.406 4.637 0 1.971-1.68 3.472-4.682 3.472-1.777 0-3.494-.56-4.641-1.509l-.197-.171 1.232-1.994c.784.74 2.397 1.479 3.74 1.479 1.233 0 1.815-.493 1.815-1.165 0-1.792-6.429-.336-6.429-4.592 0-1.815 1.59-3.405 4.436-3.405zm-13.133 0c3.584 0 5.734 2.598 5.734 5.667 0 3.091-2.15 5.69-5.734 5.69-3.562 0-5.712-2.599-5.712-5.69 0-3.069 2.15-5.667 5.712-5.667zm-34.807 0c1.722 0 3.11.551 4.162 1.322l.206.156-1.142 1.95c-.65-.695-1.882-1.255-3.203-1.255-1.03 0-1.703.47-1.703 1.075 0 1.613 6.407.269 6.407 4.637 0 1.971-1.68 3.472-4.682 3.472-1.777 0-3.494-.56-4.642-1.509l-.196-.171 1.232-1.994c.784.74 2.397 1.479 3.74 1.479 1.233 0 1.815-.493 1.815-1.165 0-1.792-6.429-.336-6.429-4.592 0-1.815 1.59-3.405 4.435-3.405zm-27.54 7.147c.459 1.04 1.421 1.679 2.641 1.679.915 0 1.657-.387 2.17-1.016l.115-.15 1.86 1.726c-.718 1.008-2.062 1.97-4.28 1.97-1.835 0-3.387-.711-4.411-1.907l1.905-2.302zm49.55-7.147c2.295 0 3.44 1.256 3.513 3.242l.004.208V32h-2.845v-6.54c0-1.502-.784-2.017-1.994-2.017-1.045 0-1.876.547-2.364 1.148l-.1.129V32h-2.844V21.18h2.844v1.412c.695-.829 2.016-1.68 3.786-1.68zm-10.893.269V32h-2.845V21.18h2.845zm-24.361 5.936c-1.12 0-2.039.582-2.039 1.635 0 1.008.919 1.59 2.039 1.59.852 0 1.686-.27 2.177-.81l.107-.13v-1.344c-.47-.628-1.366-.941-2.284-.941zm48.05-3.674c-1.769 0-2.754 1.456-2.754 3.136 0 1.703.985 3.159 2.755 3.159s2.777-1.456 2.777-3.159c0-1.68-1.008-3.136-2.777-3.136zm-56.987-1.845c.548.31.975.694 1.295 1.092l.131.17-1.859 1.748a2.548 2.548 0 00-1.244-.99l1.677-2.02zM100.25 2.4c4.524 0 7.817 3.226 7.817 7.728s-3.293 7.728-7.817 7.728c-4.503 0-7.796-3.226-7.796-7.728S95.747 2.4 100.25 2.4zM81.354 5.446h.156l.009.02c.227.55.355 1.153.378 1.785l.004.211c0 2.529-1.697 4.696-4.76 4.812l-.258.004h-3.808v5.31h-3.18l-.001-14.616.211-.326h6.778c2.103 0 3.587.92 4.371 2.281l.098.18.002-2.46H93.27v2.8h-4.345v12.14h-3.203V5.447l-4.212-.001-.07-.162-.087-.175v.337zm-22.27-2.8l3.72 6.004 3.673-6.004h3.417v.326l-5.5 8.5v6.115h-3.181v-6.115l-5.757-8.826h3.629zm-7.449 0c3.114 0 5.018 2.039 5.018 4.816 0 2.555-1.55 3.96-3.11 4.394l-.16.042 3.36 5.69H53.09l-2.934-5.31h-2.33v5.31H44.79l-.144-.181V2.647h6.99zm-11.2 9.494l4.211 5.267v.18H40.87l-2.366-3.129 1.932-2.318zm59.815-6.918c-2.756 0-4.525 2.106-4.525 4.906 0 2.778 1.77 4.906 4.525 4.906 2.755 0 4.547-2.128 4.547-4.906 0-2.8-1.792-4.906-4.547-4.906zm-23.792.224h-3.383v4.032h3.383c1.254 0 2.195-.784 2.195-2.016 0-1.254-.941-2.016-2.195-2.016zm-25.293 0h-3.338v4.032h3.338c1.277 0 2.24-.761 2.24-2.016 0-1.254-.963-2.016-2.24-2.016zm-6.778-2.8l-4.485 5.296a593.537 593.537 0 01-1.775-2.34l2.34-2.956h3.92z" fill="#FFF" fill-rule="nonzero"/><path d="M29.828 0c.662-.005 1.07.21 1.466.744a622.28 622.28 0 006.783 8.992c.414.538.45.857-.007 1.404a5374.312 5374.312 0 00-18.306 22.04c-.459.555-.661.564-1.126.002A5407.64 5407.64 0 00.332 11.142c-.452-.542-.43-.86-.012-1.403A619.054 619.054 0 007.104.748C7.5.216 7.904-.006 8.568 0c3.543.032 7.087.015 10.63.015 3.544 0 7.087.017 10.63-.014zm-19.6 3.276c-.598-.005-1.019.13-1.399.653a215.495 215.495 0 01-4.294 5.702c-.403.519-.478.843-.007 1.404 4.726 5.64 9.425 11.304 14.106 16.983.46.558.675.555 1.134-.001a2755.63 2755.63 0 0114.105-16.983c.472-.562.394-.886-.009-1.404a214.74 214.74 0 01-4.294-5.702c-.38-.524-.803-.656-1.4-.652-2.99.023-5.98.01-8.97.01s-5.982.013-8.972-.01zm2.765 1.706c1.177.064 2.361.036 3.541.01.526-.012.723.09.572.688-.292 1.152-.5 2.325-.809 3.805l4.09-3.94c.29-.28.544-.562 1.024-.556 2.172.025 4.345.011 6.814.011l-6.609 6.379h8.073L19.481 25.666l-.18-.064c.456-2.49.909-4.982 1.371-7.472.284-1.525.308-1.626-1.033-1.632h-.308c-1.255 0-2.511.035-3.764-.016-.61-.025-.846.21-.944.778-.139.805-.334 1.6-.553 2.622-1.36-1.639-2.601-3.137-3.846-4.633-.286-.343-.137-.714-.063-1.068.58-2.774 1.19-5.54 1.749-8.318.133-.66.386-.92 1.083-.881z" fill="url(#a)"/></g></svg>